<svg width="160" height="40" viewBox="0 0 208 40" fill="none" xmlns="http://www.w3.org/2000/svg">
<path d="M2.83681 19.68C2.59414 19.9413 2.36081 20.5667 2.13681 21.556V24.832H0.736811V19.764C0.942144 18.8493 1.14748 18.2987 1.35281 18.112C1.61414 17.8507 2.20214 17.72 3.11681 17.72H8.71681C8.79148 17.72 8.44614 17.8413 7.68081 18.084C6.80348 18.364 6.29014 18.56 6.14081 18.672C5.91681 19.12 5.80481 19.5587 5.80481 19.988C5.80481 21.1827 6.60748 22.1907 8.21281 23.012C9.65014 23.7587 11.0128 24.0667 12.3008 23.936C13.2528 23.544 13.9808 22.8907 14.4848 21.976C14.9141 21.1547 15.1288 20.2307 15.1288 19.204C15.1288 18.3827 15.0541 17.7947 14.9048 17.44C14.8301 17.2347 14.6435 16.992 14.3448 16.712C14.0461 16.432 13.8035 16.096 13.6168 15.704C12.6835 15.2747 10.9941 14.64 8.54881 13.8C6.29014 13.016 4.72214 12.4093 3.84481 11.98C2.48214 11.2893 1.80081 10.5987 1.80081 9.908C1.80081 9.72133 1.84748 9.53467 1.94081 9.348L1.91281 9.264C1.83814 9.13333 1.80081 8.984 1.80081 8.816C1.80081 8.06933 2.37948 7.136 3.53681 6.016C4.52614 5.064 5.43148 4.40133 6.25281 4.028C7.07414 3.636 8.27814 3.22533 9.86481 2.796C11.8248 2.27333 13.4301 2.012 14.6808 2.012C15.9501 2.012 16.7155 2.292 16.9768 2.852C17.0701 3.03867 17.1261 3.412 17.1448 3.972C17.1448 4.364 17.1355 4.88667 17.1168 5.54C17.0981 6.28667 17.0888 6.66 17.0888 6.66L11.8248 6.688C11.8248 6.83733 11.8528 6.50133 11.9088 5.68C11.9275 5.32533 11.8808 5.036 11.7688 4.812C11.5075 4.27067 10.7048 4 9.36081 4C8.65148 4 8.04481 4.112 7.54081 4.336C7.11148 4.504 6.72881 4.90533 6.39281 5.54C6.07548 6.156 5.91681 6.80933 5.91681 7.5C5.91681 8.956 6.57948 9.88933 7.90481 10.3C9.02481 10.5987 10.1541 10.8973 11.2928 11.196C12.9168 11.6627 14.2515 12.2413 15.2968 12.932C16.7341 13.884 17.7981 15.0973 18.4888 16.572L18.5448 16.656C18.7688 17.1413 18.8808 17.636 18.8808 18.14C18.8808 19.6147 17.9288 21.052 16.0248 22.452C14.5501 23.5347 13.0101 24.3093 11.4048 24.776C10.9568 24.9067 10.4341 24.972 9.83681 24.972C7.83948 24.972 6.01948 24.468 4.37681 23.46C2.56614 22.34 2.05281 21.08 2.83681 19.68ZM23.1386 20.156C23.4372 20.7907 23.9972 21.444 24.8186 22.116C25.5839 22.7507 26.2746 23.152 26.8906 23.32C28.4212 23.768 29.2986 23.992 29.5226 23.992C29.8586 23.992 30.2786 23.9267 30.7826 23.796C30.9132 23.6653 31.0906 23.3947 31.3146 22.984V15.004C31.3146 13.6787 31.8186 12.792 32.8266 12.344L34.1146 11.784C34.6559 11.56 35.3559 11.448 36.2146 11.448C37.0359 11.448 37.5119 11.6067 37.6426 11.924C37.7919 12.2227 37.9039 12.8853 37.9786 13.912V25.056H34.3946V14.696C34.3386 13.856 34.2546 13.324 34.1426 13.1C34.0492 12.8573 33.7132 12.708 33.1346 12.652C33.0786 12.8387 32.9479 13.0347 32.7426 13.24C32.5559 13.4267 32.4626 13.6787 32.4626 13.996V23.152C32.4439 23.2453 32.3506 23.404 32.1826 23.628C31.9026 23.9827 31.2679 24.3 30.2786 24.58C29.2146 24.8787 28.0479 25.028 26.7786 25.028C25.4906 25.028 24.2772 24.8693 23.1386 24.552C22.5226 24.384 21.8132 23.964 21.0106 23.292C20.2079 22.62 19.6479 21.9573 19.3306 21.304L19.3026 21.22C19.0972 20.7907 18.9946 20.2867 18.9946 19.708C18.9946 18.5507 19.3399 17.3747 20.0306 16.18C20.7399 14.9667 21.5332 14.1547 22.4106 13.744C24.3146 12.456 26.2279 11.812 28.1506 11.812C29.2892 11.812 30.3532 12.0547 31.3426 12.54L28.8506 13.156C28.3279 12.8947 27.7959 12.764 27.2546 12.764C26.0412 12.764 24.9772 13.38 24.0626 14.612C23.2039 15.7693 22.7746 17.0387 22.7746 18.42C22.7746 19.0733 22.8959 19.652 23.1386 20.156ZM40.3091 12.876L38.7411 13.576C38.9465 13.4453 39.2451 13.2307 39.6371 12.932L40.6731 12.092C40.8411 11.9427 41.0185 11.868 41.2051 11.868C41.5225 11.868 41.7651 12.0453 41.9331 12.4C42.0451 12.624 42.1945 13.0253 42.3811 13.604V23.6C42.4931 23.8987 42.6518 24.048 42.8571 24.048C42.9691 24.048 43.1185 24.0013 43.3051 23.908C43.4918 23.8147 43.6038 23.7867 43.6411 23.824C43.6971 23.5253 43.7438 23.1987 43.7811 22.844V15.536C43.7811 14.2667 44.3038 13.3893 45.3491 12.904L45.3771 12.876L49.1571 11.756C49.8478 11.4573 50.9491 11.308 52.4611 11.308C54.1411 11.308 55.1025 11.5693 55.3451 12.092C55.3451 12.092 55.5038 12.3347 55.8211 12.82C56.0265 13.1187 56.1758 13.5107 56.2691 13.996V25.168H52.1531V14.444C52.0971 14.22 52.0131 14.0147 51.9011 13.828C51.7331 13.5667 51.6118 13.3707 51.5371 13.24C51.3131 12.7547 50.6318 12.512 49.4931 12.512C49.1011 12.512 48.6998 12.54 48.2891 12.596C47.6918 13.3613 47.3931 13.996 47.3931 14.5V23.628C47.2811 23.9453 47.0105 24.2067 46.5811 24.412C45.5358 24.8973 44.3785 25.14 43.1091 25.14C41.9518 25.14 41.3731 24.8133 41.3731 24.16V14.612C41.3171 14.2387 41.1678 13.7907 40.9251 13.268C40.8131 13.0067 40.6078 12.876 40.3091 12.876ZM61.8956 14.444V21.584C62.0449 22.3307 62.3529 22.9373 62.8196 23.404C63.4169 23.628 64.0236 23.74 64.6396 23.74C66.1329 23.74 67.1223 23.2173 67.6076 22.172C67.8129 21.7427 67.9249 21.2293 67.9436 20.632C67.9063 22.032 67.8876 21.4627 67.8876 18.924V3.328C67.9436 2.712 68.4196 2.25467 69.3156 1.956C69.4463 1.91867 70.0623 1.79733 71.1636 1.592L72.4796 1.368C72.9836 1.27467 73.4969 1.52667 74.0196 2.124C74.5423 2.70267 74.8036 3.34667 74.8036 4.056V24.916H73.4596V3.02C73.4596 2.47867 73.1236 2.124 72.4516 1.956C71.9289 2.19867 71.6956 2.74933 71.7516 3.608V19.96C71.7516 21.6587 71.7609 22.2373 71.7796 21.696C71.7609 22.2933 71.6396 22.8253 71.4156 23.292C70.9303 24.356 69.4649 24.888 67.0196 24.888C65.7689 24.888 64.7049 24.7573 63.8276 24.496L60.0196 23.376C59.6463 23.264 59.2169 22.9373 58.7316 22.396C58.2463 21.8547 58.0129 21.3973 58.0316 21.024V15.284C58.1063 13.66 59.1516 12.6147 61.1676 12.148C62.0076 11.9613 63.0156 11.8867 64.1916 11.924L66.2356 12.764C66.3103 12.7827 66.4129 12.82 66.5436 12.876L66.2356 12.764C65.8436 12.596 65.3769 12.512 64.8356 12.512C64.0516 12.512 63.3889 12.6707 62.8476 12.988C62.2129 13.3427 61.8956 13.828 61.8956 14.444ZM89.8015 34.996V14.92C89.7269 14.08 89.6522 13.5853 89.5775 13.436C89.2789 13.4173 88.9709 13.38 88.6535 13.324V22.62C88.5042 23.012 88.1215 23.4133 87.5055 23.824L86.2175 24.664C85.9749 24.8133 85.2655 24.888 84.0895 24.888C82.8015 24.888 81.6069 24.7853 80.5055 24.58C78.7135 24.58 77.5469 23.8893 77.0055 22.508V14.668C76.9869 13.772 76.8469 13.1933 76.5855 12.932C76.4549 13.1373 76.3895 13.3147 76.3895 13.464L73.9255 14.612C73.9442 14.276 74.1029 13.9213 74.4015 13.548C74.7002 13.1747 75.0362 12.904 75.4095 12.736L77.8175 11.616C78.0042 11.5227 78.3215 11.476 78.7695 11.476C79.7962 11.476 80.4029 11.6813 80.5895 12.092C80.7762 12.484 80.8789 13.016 80.8975 13.688V20.688C80.8789 21.2667 80.9909 21.7053 81.2335 22.004C81.2522 22.0227 81.4855 22.2187 81.9335 22.592C82.4002 22.9653 83.1655 23.264 84.2295 23.488C85.2375 23.6933 86.1989 23.7867 87.1135 23.768C87.1882 23.6373 87.2722 23.236 87.3655 22.564V14.22C87.4589 13.4547 87.6642 13.0067 87.9815 12.876L90.1095 12.036C90.4642 11.9053 91.0242 11.84 91.7895 11.84C92.7229 11.84 93.2175 11.9893 93.2735 12.288C93.3855 12.4933 93.4975 12.6893 93.6095 12.876C93.7775 13.2867 93.8522 13.8933 93.8335 14.696V25.168C93.7589 26.4 93.7029 27.1187 93.6655 27.324C93.5909 28.0707 93.4415 28.948 93.2175 29.956C92.9002 31.4307 92.4055 32.6813 91.7335 33.708C91.3789 34.2493 90.8189 34.9027 90.0535 35.668C88.7282 36.9933 86.3202 38.0107 82.8295 38.72C79.9175 39.2987 76.8282 39.588 73.5615 39.588C72.0682 39.588 70.8082 39.5227 69.7815 39.392C67.0562 39.0187 64.5735 38.1227 62.3335 36.704C59.8509 35.136 58.6095 33.4467 58.6095 31.636C58.6095 30.3107 59.3282 29.032 60.7655 27.8C61.8669 26.8667 62.7722 26.176 63.4815 25.728C63.8922 25.4667 64.8815 24.944 66.4495 24.16C65.2735 24.888 64.4989 25.3733 64.1255 25.616C63.2295 26.232 62.5295 26.8013 62.0255 27.324C60.9429 28.444 60.4015 29.564 60.4015 30.684C60.4015 31.8787 60.9989 33.064 62.1935 34.24C63.5935 35.6213 66.1509 36.536 69.8655 36.984C71.8629 37.2267 74.8309 37.348 78.7695 37.348C82.0922 37.348 84.9015 36.9467 87.1975 36.144C88.1682 35.808 89.0362 35.4253 89.8015 34.996ZM99.4976 20.156C99.7963 20.7907 100.356 21.444 101.178 22.116C101.943 22.7507 102.634 23.152 103.25 23.32C104.78 23.768 105.658 23.992 105.882 23.992C106.218 23.992 106.638 23.9267 107.142 23.796C107.272 23.6653 107.45 23.3947 107.674 22.984V15.004C107.674 13.6787 108.178 12.792 109.186 12.344L110.474 11.784C111.015 11.56 111.715 11.448 112.574 11.448C113.395 11.448 113.871 11.6067 114.002 11.924C114.151 12.2227 114.263 12.8853 114.338 13.912V25.056H110.754V14.696C110.698 13.856 110.614 13.324 110.502 13.1C110.408 12.8573 110.072 12.708 109.494 12.652C109.438 12.8387 109.307 13.0347 109.102 13.24C108.915 13.4267 108.822 13.6787 108.822 13.996V23.152C108.803 23.2453 108.71 23.404 108.542 23.628C108.262 23.9827 107.627 24.3 106.638 24.58C105.574 24.8787 104.407 25.028 103.138 25.028C101.85 25.028 100.636 24.8693 99.4976 24.552C98.8816 24.384 98.1723 23.964 97.3696 23.292C96.567 22.62 96.007 21.9573 95.6896 21.304L95.6616 21.22C95.4563 20.7907 95.3536 20.2867 95.3536 19.708C95.3536 18.5507 95.699 17.3747 96.3896 16.18C97.099 14.9667 97.8923 14.1547 98.7696 13.744C100.674 12.456 102.587 11.812 104.51 11.812C105.648 11.812 106.712 12.0547 107.702 12.54L105.21 13.156C104.687 12.8947 104.155 12.764 103.614 12.764C102.4 12.764 101.336 13.38 100.422 14.612C99.563 15.7693 99.1336 17.0387 99.1336 18.42C99.1336 19.0733 99.255 19.652 99.4976 20.156ZM116.668 12.876L115.1 13.576C115.306 13.4453 115.604 13.2307 115.996 12.932L117.032 12.092C117.2 11.9427 117.378 11.868 117.564 11.868C117.882 11.868 118.124 12.0453 118.292 12.4C118.404 12.624 118.554 13.0253 118.74 13.604V23.6C118.852 23.8987 119.011 24.048 119.216 24.048C119.328 24.048 119.478 24.0013 119.664 23.908C119.851 23.8147 119.963 23.7867 120 23.824C120.056 23.5253 120.103 23.1987 120.14 22.844V15.536C120.14 14.2667 120.663 13.3893 121.708 12.904L121.736 12.876L125.516 11.756C126.207 11.4573 127.308 11.308 128.82 11.308C130.5 11.308 131.462 11.5693 131.704 12.092C131.704 12.092 131.863 12.3347 132.18 12.82C132.386 13.1187 132.535 13.5107 132.628 13.996V25.168H128.512V14.444C128.456 14.22 128.372 14.0147 128.26 13.828C128.092 13.5667 127.971 13.3707 127.896 13.24C127.672 12.7547 126.991 12.512 125.852 12.512C125.46 12.512 125.059 12.54 124.648 12.596C124.051 13.3613 123.752 13.996 123.752 14.5V23.628C123.64 23.9453 123.37 24.2067 122.94 24.412C121.895 24.8973 120.738 25.14 119.468 25.14C118.311 25.14 117.732 24.8133 117.732 24.16V14.612C117.676 14.2387 117.527 13.7907 117.284 13.268C117.172 13.0067 116.967 12.876 116.668 12.876ZM139.431 10.944C140.215 11.168 141.083 11.42 142.035 11.7V4.616C141.475 4.728 140.905 5.176 140.327 5.96C139.804 6.65067 139.552 6.996 139.571 6.996C139.477 7.42533 139.431 8.74133 139.431 10.944ZM150.323 15.788L150.435 15.676L153.207 14.388C152.852 14.7053 152.339 15.0973 151.667 15.564L149.231 16.712C148.783 16.9173 148.251 17.02 147.635 17.02C146.944 17.02 146.263 16.8987 145.591 16.656C145.591 16.656 145.591 17.3 145.591 18.588V21.78C145.591 22.4333 146.123 22.956 147.187 23.348C148.101 23.6653 149.025 23.8053 149.959 23.768C150.444 23.2267 150.687 22.704 150.687 22.2L153.151 21.052C153.151 21.556 152.964 22.0413 152.591 22.508C152.217 22.9747 151.797 23.32 151.331 23.544L148.923 24.664C148.456 24.8693 147.859 24.972 147.131 24.972C146.123 24.972 145.161 24.7947 144.247 24.44C143.257 24.0293 142.623 23.5253 142.343 22.928L142.315 22.844C142.109 22.4147 141.997 21.9013 141.979 21.304C141.997 21.64 142.007 21.0707 142.007 19.596V15.088C141.223 14.696 140.373 14.248 139.459 13.744V25H138.675V13.156C137.555 12.428 136.481 12.064 135.455 12.064C135.268 12.064 135.081 12.0733 134.895 12.092C134.82 12.148 134.745 12.2133 134.671 12.288L131.927 13.576C132.58 12.9973 133.14 12.596 133.607 12.372L136.015 11.224C136.761 10.888 137.639 10.7667 138.647 10.86C138.647 10.58 138.637 10.6267 138.619 11C138.619 11.0747 138.619 11.14 138.619 11.196C138.637 10.412 138.647 9.28267 138.647 7.808C138.647 6.83733 139.645 5.43733 141.643 3.608C143.565 1.83467 144.881 0.957332 145.591 0.975999V12.512C145.591 12.904 145.591 13.1 145.591 13.1C147.569 14.9107 149.147 15.8067 150.323 15.788ZM157.273 20.156C157.571 20.7907 158.131 21.444 158.953 22.116C159.718 22.7507 160.409 23.152 161.025 23.32C162.555 23.768 163.433 23.992 163.657 23.992C163.993 23.992 164.413 23.9267 164.917 23.796C165.047 23.6653 165.225 23.3947 165.449 22.984V15.004C165.449 13.6787 165.953 12.792 166.961 12.344L168.249 11.784C168.79 11.56 169.49 11.448 170.349 11.448C171.17 11.448 171.646 11.6067 171.777 11.924C171.926 12.2227 172.038 12.8853 172.113 13.912V25.056H168.529V14.696C168.473 13.856 168.389 13.324 168.277 13.1C168.183 12.8573 167.847 12.708 167.269 12.652C167.213 12.8387 167.082 13.0347 166.877 13.24C166.69 13.4267 166.597 13.6787 166.597 13.996V23.152C166.578 23.2453 166.485 23.404 166.317 23.628C166.037 23.9827 165.402 24.3 164.413 24.58C163.349 24.8787 162.182 25.028 160.913 25.028C159.625 25.028 158.411 24.8693 157.273 24.552C156.657 24.384 155.947 23.964 155.145 23.292C154.342 22.62 153.782 21.9573 153.465 21.304L153.437 21.22C153.231 20.7907 153.129 20.2867 153.129 19.708C153.129 18.5507 153.474 17.3747 154.165 16.18C154.874 14.9667 155.667 14.1547 156.545 13.744C158.449 12.456 160.362 11.812 162.285 11.812C163.423 11.812 164.487 12.0547 165.477 12.54L162.985 13.156C162.462 12.8947 161.93 12.764 161.389 12.764C160.175 12.764 159.111 13.38 158.197 14.612C157.338 15.7693 156.909 17.0387 156.909 18.42C156.909 19.0733 157.03 19.652 157.273 20.156ZM174.667 12.82L172.735 13.716C172.866 13.324 173.155 13.0253 173.603 12.82C173.827 12.7267 174.145 12.5213 174.555 12.204C174.891 11.9613 175.134 11.84 175.283 11.84C175.507 11.84 175.713 12.0453 175.899 12.456C176.011 12.6613 176.095 12.9693 176.151 13.38V23.46C176.151 23.6093 176.338 23.7493 176.711 23.88C176.954 23.9547 177.197 24.0293 177.439 24.104C177.495 23.936 177.533 23.7493 177.551 23.544V16.208C177.57 15.7973 177.645 15.2373 177.775 14.528C178.037 13.8747 178.765 13.3427 179.959 12.932L183.235 11.812C183.907 11.4947 184.505 11.336 185.027 11.336C185.699 11.336 186.157 11.6067 186.399 12.148C186.81 13.0253 187.575 13.464 188.695 13.464L186.063 14.696C185.13 14.696 184.449 14.2387 184.019 13.324C183.739 12.7267 183.189 12.4747 182.367 12.568C182.069 12.904 181.845 13.1653 181.695 13.352C181.471 13.6693 181.322 13.9773 181.247 14.276V23.348C181.098 23.684 180.883 23.8893 180.603 23.964L176.795 24.804C176.347 24.8973 176.095 24.944 176.039 24.944C175.797 24.944 175.526 24.636 175.227 24.02C175.171 23.8893 175.134 23.656 175.115 23.32V14.22C175.078 13.9213 174.994 13.5013 174.863 12.96L174.919 13.072C174.863 12.96 174.779 12.876 174.667 12.82ZM192.773 20.156C193.071 20.7907 193.631 21.444 194.453 22.116C195.218 22.7507 195.909 23.152 196.525 23.32C198.055 23.768 198.933 23.992 199.157 23.992C199.493 23.992 199.913 23.9267 200.417 23.796C200.547 23.6653 200.725 23.3947 200.949 22.984V15.004C200.949 13.6787 201.453 12.792 202.461 12.344L203.749 11.784C204.29 11.56 204.99 11.448 205.849 11.448C206.67 11.448 207.146 11.6067 207.277 11.924C207.426 12.2227 207.538 12.8853 207.613 13.912V25.056H204.029V14.696C203.973 13.856 203.889 13.324 203.777 13.1C203.683 12.8573 203.347 12.708 202.769 12.652C202.713 12.8387 202.582 13.0347 202.377 13.24C202.19 13.4267 202.097 13.6787 202.097 13.996V23.152C202.078 23.2453 201.985 23.404 201.817 23.628C201.537 23.9827 200.902 24.3 199.913 24.58C198.849 24.8787 197.682 25.028 196.413 25.028C195.125 25.028 193.911 24.8693 192.773 24.552C192.157 24.384 191.447 23.964 190.645 23.292C189.842 22.62 189.282 21.9573 188.965 21.304L188.937 21.22C188.731 20.7907 188.629 20.2867 188.629 19.708C188.629 18.5507 188.974 17.3747 189.665 16.18C190.374 14.9667 191.167 14.1547 192.045 13.744C193.949 12.456 195.862 11.812 197.785 11.812C198.923 11.812 199.987 12.0547 200.977 12.54L198.485 13.156C197.962 12.8947 197.43 12.764 196.889 12.764C195.675 12.764 194.611 13.38 193.697 14.612C192.838 15.7693 192.409 17.0387 192.409 18.42C192.409 19.0733 192.53 19.652 192.773 20.156Z" fill="white"/>
</svg>
